<svg xmlns="http://www.w3.org/2000/svg" xmlns:xlink="http://www.w3.org/1999/xlink" width="500" zoomAndPan="magnify" viewBox="0 0 375 374.999991" height="500" preserveAspectRatio="xMidYMid meet" version="1.0"><defs><g/><clipPath id="57bffc4a8c"><path d="M 187 188 L 253 188 L 253 233.933594 L 187 233.933594 Z M 187 188 " clip-rule="nonzero"/></clipPath></defs><path fill="#f68712" d="M 167.484375 113.8125 C 165.015625 115.367188 161.820312 116.863281 157.785156 118.210938 C 148.820312 121.207031 139.378906 119.710938 130.40625 122.101562 C 128.136719 122.707031 124.761719 124.324219 122.714844 126.4375 C 122.714844 126.4375 128.972656 114.550781 147.210938 107.449219 C 148.855469 106.808594 150.597656 106.207031 152.445312 105.65625 C 163.644531 102.3125 160.488281 97.605469 155.585938 98.988281 C 155.585938 98.988281 159.644531 96.125 165.402344 96.34375 C 174.078125 96.675781 179.867188 106.015625 167.484375 113.8125 " fill-opacity="1" fill-rule="nonzero"/><path fill="#f68712" d="M 212.035156 113.886719 C 210.234375 121.496094 204.707031 128.179688 198.464844 133.546875 C 191.558594 139.496094 183.773438 143.828125 179.210938 146.011719 C 149.441406 160.28125 119.566406 154.933594 116.019531 169.480469 C 116.019531 169.480469 108.933594 156.398438 125.648438 147.128906 C 134.847656 142.027344 140.007812 139.390625 161.492188 131.582031 C 167.980469 129.222656 175.902344 126.34375 182.910156 121.734375 C 187.6875 118.59375 192.042969 114.648438 195.238281 109.515625 C 200.761719 100.628906 193.789062 91.808594 181.164062 91.0625 C 200.390625 89.984375 215.300781 100.113281 212.035156 113.886719 " fill-opacity="1" fill-rule="nonzero"/><path fill="#3871c1" d="M 222.945312 166.699219 C 216.75 171.492188 209.09375 176.015625 199.890625 180.09375 C 164.535156 195.757812 135.164062 192.328125 128.320312 207.308594 C 128.320312 207.308594 118.960938 187.664062 151.59375 177.015625 C 180.289062 167.65625 200.042969 158.648438 213.023438 150.066406 C 241.339844 131.359375 237.449219 114.675781 223.839844 100.78125 C 224.652344 101.273438 225.429688 101.753906 226.132812 102.203125 C 249.1875 118.402344 250.699219 145.242188 222.945312 166.699219 " fill-opacity="1" fill-rule="nonzero"/><path fill="#40b93c" d="M 251.308594 180.761719 C 247.273438 187.824219 241.359375 193.722656 234.28125 198.71875 C 225.789062 204.707031 215.609375 209.394531 204.964844 213.210938 C 190.988281 218.230469 156.65625 222.402344 155.546875 230.421875 C 155.546875 230.421875 151.167969 222.265625 166.699219 214.316406 C 184.527344 205.195312 203.296875 198.074219 220.996094 188.671875 C 222.722656 187.753906 226.039062 186.082031 229.933594 183.597656 C 242.03125 175.902344 259.722656 160.460938 252.824219 135.957031 C 253.078125 136.339844 265.6875 155.605469 251.308594 180.761719 " fill-opacity="1" fill-rule="nonzero"/><g clip-path="url(#57bffc4a8c)"><path fill="#40b93c" d="M 252.59375 188.183594 C 252.59375 188.183594 251.882812 198.742188 237.007812 212.371094 C 236.96875 212.410156 236.925781 212.449219 236.886719 212.484375 C 228.921875 219.753906 219.324219 225.007812 211.136719 228.457031 C 198.535156 233.761719 187.425781 233.851562 187.308594 233.886719 C 201.203125 229.53125 221.5 218.03125 235.949219 206.464844 C 244.058594 199.972656 250.328125 193.464844 252.59375 188.183594 " fill-opacity="1" fill-rule="nonzero"/></g><path fill="#fbc108" d="M 167.484375 113.8125 C 160.433594 110.871094 153.550781 108.84375 147.210938 107.449219 C 148.855469 106.808594 150.597656 106.207031 152.445312 105.65625 C 163.644531 102.3125 160.488281 97.605469 155.585938 98.988281 C 155.585938 98.988281 159.644531 96.125 165.402344 96.34375 C 174.078125 96.675781 179.867188 106.015625 167.484375 113.8125 " fill-opacity="1" fill-rule="nonzero"/><path fill="#fbc108" d="M 212.035156 113.886719 C 210.234375 121.496094 204.707031 128.179688 198.464844 133.546875 C 193.433594 128.917969 188.199219 125.019531 182.910156 121.734375 C 187.6875 118.59375 192.042969 114.648438 195.238281 109.515625 C 200.761719 100.628906 193.789062 91.808594 181.164062 91.0625 C 200.390625 89.984375 215.300781 100.113281 212.035156 113.886719 " fill-opacity="1" fill-rule="nonzero"/><path fill="#00adef" d="M 222.945312 166.699219 C 219.921875 160.578125 216.589844 155.050781 213.023438 150.066406 C 241.339844 131.359375 237.449219 114.675781 223.839844 100.78125 C 224.652344 101.273438 225.429688 101.753906 226.132812 102.203125 C 249.1875 118.402344 250.699219 145.242188 222.945312 166.699219 " fill-opacity="1" fill-rule="nonzero"/><path fill="#80cc28" d="M 252.59375 188.183594 C 252.59375 188.183594 251.882812 198.742188 237.007812 212.371094 C 236.679688 210.367188 236.328125 208.394531 235.949219 206.464844 C 244.058594 199.972656 250.328125 193.464844 252.59375 188.183594 " fill-opacity="1" fill-rule="nonzero"/><path fill="#80cc28" d="M 234.28125 198.71875 C 233.007812 193.382812 231.550781 188.351562 229.933594 183.597656 C 242.03125 175.902344 259.722656 160.460938 252.824219 135.957031 C 253.078125 136.339844 265.6875 155.605469 251.308594 180.761719 C 247.273438 187.824219 241.359375 193.722656 234.28125 198.71875 " fill-opacity="1" fill-rule="nonzero"/><g fill="#000000" fill-opacity="1"><g transform="translate(98.71067, 267.738177)"><g><path d="M 15.78125 -9.09375 L 17.625 -9.09375 L 17.625 -2.15625 C 16.78125 -1.414062 15.773438 -0.84375 14.609375 -0.4375 C 13.453125 -0.0390625 12.234375 0.15625 10.953125 0.15625 C 9.128906 0.15625 7.488281 -0.238281 6.03125 -1.03125 C 4.570312 -1.832031 3.425781 -2.9375 2.59375 -4.34375 C 1.769531 -5.757812 1.359375 -7.34375 1.359375 -9.09375 C 1.359375 -10.84375 1.769531 -12.425781 2.59375 -13.84375 C 3.425781 -15.257812 4.570312 -16.363281 6.03125 -17.15625 C 7.488281 -17.957031 9.132812 -18.359375 10.96875 -18.359375 C 12.351562 -18.359375 13.625 -18.132812 14.78125 -17.6875 C 15.945312 -17.25 16.929688 -16.597656 17.734375 -15.734375 L 16.53125 -14.515625 C 15.09375 -15.929688 13.265625 -16.640625 11.046875 -16.640625 C 9.578125 -16.640625 8.25 -16.3125 7.0625 -15.65625 C 5.875 -15.007812 4.941406 -14.109375 4.265625 -12.953125 C 3.585938 -11.804688 3.25 -10.519531 3.25 -9.09375 C 3.25 -7.675781 3.585938 -6.394531 4.265625 -5.25 C 4.941406 -4.101562 5.867188 -3.203125 7.046875 -2.546875 C 8.222656 -1.890625 9.550781 -1.5625 11.03125 -1.5625 C 12.894531 -1.5625 14.476562 -2.03125 15.78125 -2.96875 Z M 15.78125 -9.09375 "/></g></g></g><g fill="#000000" fill-opacity="1"><g transform="translate(117.45064, 267.738177)"><g><path d="M 2.96875 -18.203125 L 4.890625 -18.203125 L 4.890625 -1.65625 L 15.078125 -1.65625 L 15.078125 0 L 2.96875 0 Z M 2.96875 -18.203125 "/></g></g></g><g fill="#000000" fill-opacity="1"><g transform="translate(131.408044, 267.738177)"><g><path d="M 10.921875 0.15625 C 9.117188 0.15625 7.484375 -0.242188 6.015625 -1.046875 C 4.554688 -1.859375 3.414062 -2.960938 2.59375 -4.359375 C 1.769531 -5.765625 1.359375 -7.34375 1.359375 -9.09375 C 1.359375 -10.84375 1.769531 -12.421875 2.59375 -13.828125 C 3.414062 -15.234375 4.554688 -16.335938 6.015625 -17.140625 C 7.484375 -17.953125 9.117188 -18.359375 10.921875 -18.359375 C 12.722656 -18.359375 14.347656 -17.957031 15.796875 -17.15625 C 17.242188 -16.363281 18.382812 -15.257812 19.21875 -13.84375 C 20.050781 -12.425781 20.46875 -10.84375 20.46875 -9.09375 C 20.46875 -7.34375 20.050781 -5.757812 19.21875 -4.34375 C 18.382812 -2.9375 17.242188 -1.832031 15.796875 -1.03125 C 14.347656 -0.238281 12.722656 0.15625 10.921875 0.15625 Z M 10.921875 -1.5625 C 12.359375 -1.5625 13.65625 -1.882812 14.8125 -2.53125 C 15.976562 -3.1875 16.890625 -4.085938 17.546875 -5.234375 C 18.203125 -6.390625 18.53125 -7.675781 18.53125 -9.09375 C 18.53125 -10.519531 18.203125 -11.804688 17.546875 -12.953125 C 16.890625 -14.109375 15.976562 -15.007812 14.8125 -15.65625 C 13.65625 -16.3125 12.359375 -16.640625 10.921875 -16.640625 C 9.484375 -16.640625 8.175781 -16.3125 7 -15.65625 C 5.832031 -15.007812 4.914062 -14.109375 4.25 -12.953125 C 3.582031 -11.804688 3.25 -10.519531 3.25 -9.09375 C 3.25 -7.675781 3.582031 -6.390625 4.25 -5.234375 C 4.914062 -4.085938 5.832031 -3.1875 7 -2.53125 C 8.175781 -1.882812 9.484375 -1.5625 10.921875 -1.5625 Z M 10.921875 -1.5625 "/></g></g></g><g fill="#000000" fill-opacity="1"><g transform="translate(151.863506, 267.738177)"><g><path d="M 14.4375 -9.390625 C 15.625 -9.128906 16.539062 -8.613281 17.1875 -7.84375 C 17.84375 -7.070312 18.171875 -6.078125 18.171875 -4.859375 C 18.171875 -3.296875 17.59375 -2.09375 16.4375 -1.25 C 15.289062 -0.414062 13.59375 0 11.34375 0 L 2.96875 0 L 2.96875 -18.203125 L 10.8125 -18.203125 C 12.84375 -18.203125 14.414062 -17.789062 15.53125 -16.96875 C 16.65625 -16.15625 17.21875 -15.003906 17.21875 -13.515625 C 17.21875 -12.515625 16.96875 -11.660156 16.46875 -10.953125 C 15.976562 -10.253906 15.300781 -9.734375 14.4375 -9.390625 Z M 4.890625 -16.609375 L 4.890625 -10.015625 L 10.6875 -10.015625 C 12.15625 -10.015625 13.285156 -10.296875 14.078125 -10.859375 C 14.878906 -11.421875 15.28125 -12.238281 15.28125 -13.3125 C 15.28125 -14.382812 14.878906 -15.203125 14.078125 -15.765625 C 13.285156 -16.328125 12.15625 -16.609375 10.6875 -16.609375 Z M 11.3125 -1.59375 C 12.9375 -1.59375 14.164062 -1.867188 15 -2.421875 C 15.832031 -2.972656 16.25 -3.835938 16.25 -5.015625 C 16.25 -7.285156 14.601562 -8.421875 11.3125 -8.421875 L 4.890625 -8.421875 L 4.890625 -1.59375 Z M 11.3125 -1.59375 "/></g></g></g><g fill="#000000" fill-opacity="1"><g transform="translate(170.109627, 267.738177)"><g><path d="M 14.375 -4.859375 L 4.234375 -4.859375 L 2.046875 0 L 0.046875 0 L 8.375 -18.203125 L 10.265625 -18.203125 L 18.59375 0 L 16.5625 0 Z M 13.671875 -6.421875 L 9.3125 -16.203125 L 4.9375 -6.421875 Z M 13.671875 -6.421875 "/></g></g></g><g fill="#000000" fill-opacity="1"><g transform="translate(187.394033, 267.738177)"><g><path d="M 2.96875 -18.203125 L 4.890625 -18.203125 L 4.890625 -1.65625 L 15.078125 -1.65625 L 15.078125 0 L 2.96875 0 Z M 2.96875 -18.203125 "/></g></g></g><g fill="#000000" fill-opacity="1"><g transform="translate(201.355198, 267.738177)"><g/></g></g><g fill="#323232" fill-opacity="1"><g transform="translate(134.276545, 283.868857)"><g><path d="M 5.921875 -5.78125 L 5.921875 0 L 5.03125 0 L 1.84375 -3.921875 L 1.84375 0 L 0.78125 0 L 0.78125 -5.78125 L 1.65625 -5.78125 L 4.859375 -1.875 L 4.859375 -5.78125 Z M 5.921875 -5.78125 "/></g></g></g><g fill="#323232" fill-opacity="1"><g transform="translate(145.975734, 283.868857)"><g><path d="M 5.109375 -0.90625 L 5.109375 0 L 0.78125 0 L 0.78125 -5.78125 L 5 -5.78125 L 5 -4.890625 L 1.84375 -4.890625 L 1.84375 -3.375 L 4.640625 -3.375 L 4.640625 -2.5 L 1.84375 -2.5 L 1.84375 -0.90625 Z M 5.109375 -0.90625 "/></g></g></g><g fill="#323232" fill-opacity="1"><g transform="translate(156.517406, 283.868857)"><g><path d="M 1.953125 -4.875 L 0.03125 -4.875 L 0.03125 -5.78125 L 4.9375 -5.78125 L 4.9375 -4.875 L 3.03125 -4.875 L 3.03125 0 L 1.953125 0 Z M 1.953125 -4.875 "/></g></g></g><g fill="#323232" fill-opacity="1"><g transform="translate(166.496849, 283.868857)"><g><path d="M 9.234375 -5.78125 L 7.3125 0 L 6.171875 0 L 4.75 -4.28125 L 3.296875 0 L 2.140625 0 L 0.21875 -5.78125 L 1.34375 -5.78125 L 2.78125 -1.390625 L 4.265625 -5.78125 L 5.265625 -5.78125 L 6.734375 -1.359375 L 8.203125 -5.78125 Z M 9.234375 -5.78125 "/></g></g></g><g fill="#323232" fill-opacity="1"><g transform="translate(180.957563, 283.868857)"><g><path d="M 3.484375 0.078125 C 2.890625 0.078125 2.351562 -0.046875 1.875 -0.296875 C 1.40625 -0.554688 1.035156 -0.910156 0.765625 -1.359375 C 0.492188 -1.816406 0.359375 -2.328125 0.359375 -2.890625 C 0.359375 -3.453125 0.492188 -3.957031 0.765625 -4.40625 C 1.035156 -4.863281 1.40625 -5.222656 1.875 -5.484375 C 2.351562 -5.742188 2.890625 -5.875 3.484375 -5.875 C 4.066406 -5.875 4.59375 -5.742188 5.0625 -5.484375 C 5.539062 -5.222656 5.914062 -4.867188 6.1875 -4.421875 C 6.457031 -3.972656 6.59375 -3.460938 6.59375 -2.890625 C 6.59375 -2.328125 6.457031 -1.816406 6.1875 -1.359375 C 5.914062 -0.910156 5.539062 -0.554688 5.0625 -0.296875 C 4.59375 -0.046875 4.066406 0.078125 3.484375 0.078125 Z M 3.484375 -0.859375 C 3.867188 -0.859375 4.210938 -0.941406 4.515625 -1.109375 C 4.828125 -1.285156 5.070312 -1.53125 5.25 -1.84375 C 5.425781 -2.15625 5.515625 -2.503906 5.515625 -2.890625 C 5.515625 -3.273438 5.425781 -3.625 5.25 -3.9375 C 5.070312 -4.25 4.828125 -4.488281 4.515625 -4.65625 C 4.210938 -4.832031 3.867188 -4.921875 3.484375 -4.921875 C 3.097656 -4.921875 2.75 -4.832031 2.4375 -4.65625 C 2.125 -4.488281 1.878906 -4.25 1.703125 -3.9375 C 1.535156 -3.625 1.453125 -3.273438 1.453125 -2.890625 C 1.453125 -2.503906 1.535156 -2.15625 1.703125 -1.84375 C 1.878906 -1.53125 2.125 -1.285156 2.4375 -1.109375 C 2.75 -0.941406 3.097656 -0.859375 3.484375 -0.859375 Z M 3.484375 -0.859375 "/></g></g></g><g fill="#323232" fill-opacity="1"><g transform="translate(192.92133, 283.868857)"><g><path d="M 4.5625 0 L 3.375 -1.6875 C 3.332031 -1.6875 3.257812 -1.6875 3.15625 -1.6875 L 1.84375 -1.6875 L 1.84375 0 L 0.78125 0 L 0.78125 -5.78125 L 3.15625 -5.78125 C 3.65625 -5.78125 4.09375 -5.695312 4.46875 -5.53125 C 4.84375 -5.375 5.128906 -5.140625 5.328125 -4.828125 C 5.523438 -4.515625 5.625 -4.148438 5.625 -3.734375 C 5.625 -3.296875 5.515625 -2.914062 5.296875 -2.59375 C 5.085938 -2.28125 4.785156 -2.050781 4.390625 -1.90625 L 5.71875 0 Z M 4.53125 -3.734375 C 4.53125 -4.097656 4.410156 -4.378906 4.171875 -4.578125 C 3.929688 -4.773438 3.578125 -4.875 3.109375 -4.875 L 1.84375 -4.875 L 1.84375 -2.578125 L 3.109375 -2.578125 C 3.578125 -2.578125 3.929688 -2.675781 4.171875 -2.875 C 4.410156 -3.070312 4.53125 -3.359375 4.53125 -3.734375 Z M 4.53125 -3.734375 "/></g></g></g><g fill="#323232" fill-opacity="1"><g transform="translate(203.967354, 283.868857)"><g><path d="M 2.765625 -2.421875 L 1.84375 -1.484375 L 1.84375 0 L 0.78125 0 L 0.78125 -5.78125 L 1.84375 -5.78125 L 1.84375 -2.8125 L 4.71875 -5.78125 L 5.921875 -5.78125 L 3.484375 -3.203125 L 6.0625 0 L 4.8125 0 Z M 2.765625 -2.421875 "/></g></g></g><g fill="#323232" fill-opacity="1"><g transform="translate(214.996841, 283.868857)"><g><path d="M 0.78125 -5.78125 L 1.84375 -5.78125 L 1.84375 0 L 0.78125 0 Z M 0.78125 -5.78125 "/></g></g></g><g fill="#323232" fill-opacity="1"><g transform="translate(222.636445, 283.868857)"><g><path d="M 5.921875 -5.78125 L 5.921875 0 L 5.03125 0 L 1.84375 -3.921875 L 1.84375 0 L 0.78125 0 L 0.78125 -5.78125 L 1.65625 -5.78125 L 4.859375 -1.875 L 4.859375 -5.78125 Z M 5.921875 -5.78125 "/></g></g></g><g fill="#323232" fill-opacity="1"><g transform="translate(234.335631, 283.868857)"><g><path d="M 4.734375 -2.953125 L 5.75 -2.953125 L 5.75 -0.65625 C 5.445312 -0.414062 5.097656 -0.234375 4.703125 -0.109375 C 4.304688 0.015625 3.898438 0.078125 3.484375 0.078125 C 2.890625 0.078125 2.351562 -0.046875 1.875 -0.296875 C 1.40625 -0.554688 1.035156 -0.910156 0.765625 -1.359375 C 0.492188 -1.816406 0.359375 -2.328125 0.359375 -2.890625 C 0.359375 -3.460938 0.492188 -3.972656 0.765625 -4.421875 C 1.035156 -4.867188 1.410156 -5.222656 1.890625 -5.484375 C 2.367188 -5.742188 2.90625 -5.875 3.5 -5.875 C 3.976562 -5.875 4.414062 -5.789062 4.8125 -5.625 C 5.207031 -5.46875 5.539062 -5.234375 5.8125 -4.921875 L 5.140625 -4.265625 C 4.703125 -4.703125 4.171875 -4.921875 3.546875 -4.921875 C 3.140625 -4.921875 2.773438 -4.832031 2.453125 -4.65625 C 2.140625 -4.488281 1.894531 -4.25 1.71875 -3.9375 C 1.539062 -3.632812 1.453125 -3.285156 1.453125 -2.890625 C 1.453125 -2.503906 1.539062 -2.15625 1.71875 -1.84375 C 1.894531 -1.539062 2.140625 -1.300781 2.453125 -1.125 C 2.773438 -0.945312 3.132812 -0.859375 3.53125 -0.859375 C 3.988281 -0.859375 4.390625 -0.957031 4.734375 -1.15625 Z M 4.734375 -2.953125 "/></g></g></g><g fill="#1c9ae1" fill-opacity="1"><g transform="translate(208.174868, 267.738177)"><g><path d="M 5.921875 -14.765625 L 0.109375 -14.765625 L 0.109375 -18.203125 L 15.96875 -18.203125 L 15.96875 -14.765625 L 10.140625 -14.765625 L 10.140625 0 L 5.921875 0 Z M 5.921875 -14.765625 "/></g></g></g><g fill="#1c9ae1" fill-opacity="1"><g transform="translate(222.886048, 267.738177)"><g><path d="M 16.25 -3.375 L 16.25 0 L 2.15625 0 L 2.15625 -18.203125 L 15.90625 -18.203125 L 15.90625 -14.8125 L 6.34375 -14.8125 L 6.34375 -10.875 L 14.796875 -10.875 L 14.796875 -7.59375 L 6.34375 -7.59375 L 6.34375 -3.375 Z M 16.25 -3.375 "/></g></g></g><g fill="#1c9ae1" fill-opacity="1"><g transform="translate(238.97481, 267.738177)"><g><path d="M 10.875 0.3125 C 9.019531 0.3125 7.34375 -0.0859375 5.84375 -0.890625 C 4.34375 -1.703125 3.160156 -2.820312 2.296875 -4.25 C 1.441406 -5.675781 1.015625 -7.289062 1.015625 -9.09375 C 1.015625 -10.894531 1.441406 -12.507812 2.296875 -13.9375 C 3.160156 -15.375 4.34375 -16.492188 5.84375 -17.296875 C 7.34375 -18.109375 9.023438 -18.515625 10.890625 -18.515625 C 12.472656 -18.515625 13.898438 -18.234375 15.171875 -17.671875 C 16.441406 -17.117188 17.507812 -16.320312 18.375 -15.28125 L 15.671875 -12.796875 C 14.441406 -14.210938 12.921875 -14.921875 11.109375 -14.921875 C 9.972656 -14.921875 8.960938 -14.671875 8.078125 -14.171875 C 7.203125 -13.679688 6.515625 -12.992188 6.015625 -12.109375 C 5.523438 -11.234375 5.28125 -10.226562 5.28125 -9.09375 C 5.28125 -7.96875 5.523438 -6.960938 6.015625 -6.078125 C 6.515625 -5.203125 7.203125 -4.515625 8.078125 -4.015625 C 8.960938 -3.523438 9.972656 -3.28125 11.109375 -3.28125 C 12.921875 -3.28125 14.441406 -4 15.671875 -5.4375 L 18.375 -2.9375 C 17.507812 -1.882812 16.4375 -1.078125 15.15625 -0.515625 C 13.875 0.0351562 12.445312 0.3125 10.875 0.3125 Z M 10.875 0.3125 "/></g></g></g><g fill="#1c9ae1" fill-opacity="1"><g transform="translate(256.675097, 267.738177)"><g><path d="M 18.84375 -18.203125 L 18.84375 0 L 14.640625 0 L 14.640625 -7.46875 L 6.375 -7.46875 L 6.375 0 L 2.15625 0 L 2.15625 -18.203125 L 6.375 -18.203125 L 6.375 -11.03125 L 14.640625 -11.03125 L 14.640625 -18.203125 Z M 18.84375 -18.203125 "/></g></g></g></svg>