<svg xmlns="http://www.w3.org/2000/svg" height="256" width="256" viewBox="0 0 61 61" role="img" id="qrCode"><path fill="#FFFFFF" d="M0,0 h61v61H0z" shape-rendering="crispEdges"/><path fill="#25d366" d="M4 4h7v1H4zM12 4h2v1H12zM17 4h1v1H17zM20 4h2v1H20zM24 4h8v1H24zM34 4h1v1H34zM36 4h1v1H36zM38 4h2v1H38zM41 4h1v1H41zM46 4h1v1H46zM50,4 h7v1H50zM4 5h1v1H4zM10 5h1v1H10zM12 5h3v1H12zM16 5h1v1H16zM18 5h2v1H18zM22 5h2v1H22zM30 5h3v1H30zM35 5h4v1H35zM40 5h1v1H40zM44 5h4v1H44zM50 5h1v1H50zM56,5 h1v1H56zM4 6h1v1H4zM6 6h3v1H6zM10 6h1v1H10zM12 6h1v1H12zM19 6h2v1H19zM25 6h5v1H25zM31 6h2v1H31zM34 6h2v1H34zM38 6h5v1H38zM44 6h1v1H44zM47 6h1v1H47zM50 6h1v1H50zM52 6h3v1H52zM56,6 h1v1H56zM4 7h1v1H4zM6 7h3v1H6zM10 7h1v1H10zM17 7h1v1H17zM19 7h3v1H19zM25 7h1v1H25zM27 7h2v1H27zM30 7h1v1H30zM35 7h2v1H35zM40 7h4v1H40zM46 7h1v1H46zM48 7h1v1H48zM50 7h1v1H50zM52 7h3v1H52zM56,7 h1v1H56zM4 8h1v1H4zM6 8h3v1H6zM10 8h1v1H10zM15 8h5v1H15zM21 8h1v1H21zM25 8h1v1H25zM28 8h5v1H28zM34 8h3v1H34zM38 8h4v1H38zM45 8h2v1H45zM50 8h1v1H50zM52 8h3v1H52zM56,8 h1v1H56zM4 9h1v1H4zM10 9h1v1H10zM12 9h1v1H12zM14 9h1v1H14zM18 9h8v1H18zM27 9h2v1H27zM32 9h2v1H32zM35 9h2v1H35zM40 9h4v1H40zM45 9h2v1H45zM50 9h1v1H50zM56,9 h1v1H56zM4 10h7v1H4zM12 10h1v1H12zM14 10h1v1H14zM16 10h1v1H16zM18 10h1v1H18zM20 10h1v1H20zM22 10h1v1H22zM24 10h1v1H24zM26 10h1v1H26zM28 10h1v1H28zM30 10h1v1H30zM32 10h1v1H32zM34 10h1v1H34zM36 10h1v1H36zM38 10h1v1H38zM40 10h1v1H40zM42 10h1v1H42zM44 10h1v1H44zM46 10h1v1H46zM48 10h1v1H48zM50,10 h7v1H50zM12 11h2v1H12zM16 11h1v1H16zM19 11h1v1H19zM23 11h4v1H23zM28 11h1v1H28zM32 11h1v1H32zM34 11h2v1H34zM37 11h3v1H37zM41 11h1v1H41zM44 11h4v1H44zM6 12h3v1H6zM10 12h1v1H10zM12 12h2v1H12zM15 12h1v1H15zM17 12h3v1H17zM21 12h2v1H21zM24 12h3v1H24zM28 12h5v1H28zM36 12h1v1H36zM38 12h1v1H38zM40 12h2v1H40zM45 12h7v1H45zM54,12 h3v1H54zM4 13h2v1H4zM7 13h3v1H7zM11 13h3v1H11zM16 13h1v1H16zM19 13h5v1H19zM25 13h3v1H25zM31 13h1v1H31zM34 13h3v1H34zM44 13h3v1H44zM49 13h1v1H49zM51 13h2v1H51zM54 13h1v1H54zM56,13 h1v1H56zM5 14h2v1H5zM9 14h3v1H9zM13 14h1v1H13zM15 14h2v1H15zM20 14h3v1H20zM25 14h2v1H25zM28 14h1v1H28zM32 14h1v1H32zM34 14h1v1H34zM37 14h1v1H37zM40 14h3v1H40zM44 14h2v1H44zM47 14h2v1H47zM50 14h3v1H50zM55 14h1v1H55zM5 15h5v1H5zM11 15h2v1H11zM14 15h1v1H14zM19 15h1v1H19zM21 15h1v1H21zM23 15h1v1H23zM25 15h1v1H25zM27 15h1v1H27zM29 15h3v1H29zM34 15h1v1H34zM37 15h2v1H37zM43 15h4v1H43zM51 15h1v1H51zM53 15h1v1H53zM5 16h1v1H5zM8 16h1v1H8zM10 16h1v1H10zM12 16h2v1H12zM17 16h3v1H17zM21 16h2v1H21zM25 16h1v1H25zM27 16h1v1H27zM30 16h5v1H30zM36 16h5v1H36zM42 16h1v1H42zM45 16h2v1H45zM48 16h2v1H48zM54 16h1v1H54zM4 17h2v1H4zM8 17h1v1H8zM11 17h1v1H11zM13 17h2v1H13zM18 17h1v1H18zM20 17h2v1H20zM26 17h1v1H26zM29 17h1v1H29zM35 17h2v1H35zM39 17h2v1H39zM46 17h2v1H46zM52,17 h5v1H52zM9 18h3v1H9zM14 18h2v1H14zM17 18h6v1H17zM25 18h4v1H25zM32 18h2v1H32zM36 18h3v1H36zM41 18h2v1H41zM45 18h1v1H45zM47 18h1v1H47zM49 18h4v1H49zM54 18h1v1H54zM4 19h5v1H4zM12 19h2v1H12zM16 19h2v1H16zM22 19h1v1H22zM25 19h3v1H25zM31 19h1v1H31zM35 19h2v1H35zM38 19h1v1H38zM43 19h2v1H43zM48 19h1v1H48zM53 19h1v1H53zM6 20h2v1H6zM9 20h3v1H9zM14 20h1v1H14zM17 20h1v1H17zM19 20h2v1H19zM22 20h3v1H22zM29 20h2v1H29zM32 20h2v1H32zM36 20h1v1H36zM38 20h4v1H38zM45 20h2v1H45zM48 20h2v1H48zM51 20h2v1H51zM54 20h1v1H54zM56,20 h1v1H56zM7 21h1v1H7zM9 21h1v1H9zM12 21h2v1H12zM15 21h3v1H15zM21 21h2v1H21zM27 21h1v1H27zM30 21h2v1H30zM34 21h2v1H34zM37 21h1v1H37zM40 21h2v1H40zM45 21h3v1H45zM54,21 h3v1H54zM7 22h1v1H7zM10 22h3v1H10zM14 22h1v1H14zM17 22h3v1H17zM21 22h2v1H21zM25 22h1v1H25zM36 22h1v1H36zM42 22h1v1H42zM44 22h1v1H44zM50 22h1v1H50zM53 22h2v1H53zM4 23h2v1H4zM7 23h1v1H7zM9 23h1v1H9zM11 23h2v1H11zM16 23h2v1H16zM19 23h1v1H19zM22 23h1v1H22zM24 23h1v1H24zM29 23h2v1H29zM32 23h2v1H32zM35 23h4v1H35zM40 23h3v1H40zM44 23h3v1H44zM49 23h2v1H49zM53 23h1v1H53zM55 23h1v1H55zM4 24h1v1H4zM6 24h1v1H6zM10 24h2v1H10zM13 24h1v1H13zM16 24h2v1H16zM19 24h4v1H19zM26 24h2v1H26zM31 24h2v1H31zM34 24h3v1H34zM39 24h1v1H39zM41 24h1v1H41zM43 24h1v1H43zM46 24h1v1H46zM48 24h1v1H48zM51 24h2v1H51zM54 24h2v1H54zM4 25h2v1H4zM12 25h9v1H12zM23 25h1v1H23zM27 25h1v1H27zM29 25h1v1H29zM33 25h2v1H33zM38 25h1v1H38zM45 25h3v1H45zM49 25h1v1H49zM53 25h1v1H53zM55,25 h2v1H55zM4 26h1v1H4zM7 26h4v1H7zM13 26h1v1H13zM15 26h2v1H15zM20 26h3v1H20zM24 26h1v1H24zM31 26h1v1H31zM33 26h1v1H33zM35 26h5v1H35zM42 26h1v1H42zM48 26h1v1H48zM50 26h1v1H50zM52 26h3v1H52zM6 27h2v1H6zM11 27h3v1H11zM15 27h1v1H15zM20 27h3v1H20zM24 27h1v1H24zM26 27h1v1H26zM28 27h3v1H28zM32 27h2v1H32zM37 27h3v1H37zM41 27h1v1H41zM43 27h2v1H43zM46 27h3v1H46zM50 27h2v1H50zM53 27h1v1H53zM55 27h1v1H55zM4 28h1v1H4zM7 28h6v1H7zM16 28h3v1H16zM20 28h2v1H20zM23 28h1v1H23zM25 28h1v1H25zM28 28h5v1H28zM34 28h2v1H34zM37 28h2v1H37zM40 28h4v1H40zM45 28h8v1H45zM54 28h2v1H54zM7 29h2v1H7zM12 29h1v1H12zM15 29h7v1H15zM25 29h4v1H25zM32 29h2v1H32zM35 29h2v1H35zM38 29h4v1H38zM43 29h6v1H43zM52 29h1v1H52zM54,29 h3v1H54zM5 30h2v1H5zM8 30h1v1H8zM10 30h1v1H10zM12 30h2v1H12zM17 30h1v1H17zM20 30h1v1H20zM22 30h2v1H22zM25 30h1v1H25zM28 30h1v1H28zM30 30h1v1H30zM32 30h3v1H32zM36 30h1v1H36zM39 30h2v1H39zM42 30h1v1H42zM44 30h1v1H44zM47 30h2v1H47zM50 30h1v1H50zM52 30h2v1H52zM5 31h1v1H5zM7 31h2v1H7zM12 31h8v1H12zM22 31h1v1H22zM25 31h1v1H25zM28 31h1v1H28zM32 31h3v1H32zM36 31h1v1H36zM43 31h3v1H43zM48 31h1v1H48zM52 31h2v1H52zM55 31h1v1H55zM4 32h15v1H4zM20 32h1v1H20zM22 32h4v1H22zM28 32h5v1H28zM35 32h6v1H35zM42 32h1v1H42zM45 32h1v1H45zM47 32h8v1H47zM56,32 h1v1H56zM4 33h2v1H4zM8 33h1v1H8zM12 33h1v1H12zM15 33h1v1H15zM20 33h3v1H20zM26 33h1v1H26zM28 33h2v1H28zM31 33h1v1H31zM33 33h1v1H33zM36 33h2v1H36zM43 33h1v1H43zM45 33h3v1H45zM50 33h1v1H50zM52 33h1v1H52zM54,33 h3v1H54zM4 34h3v1H4zM10 34h1v1H10zM12 34h3v1H12zM16 34h1v1H16zM18 34h2v1H18zM22 34h1v1H22zM24 34h1v1H24zM27 34h1v1H27zM29 34h1v1H29zM31 34h4v1H31zM36 34h2v1H36zM40 34h4v1H40zM45 34h1v1H45zM51 34h1v1H51zM4 35h5v1H4zM11 35h2v1H11zM15 35h4v1H15zM20 35h1v1H20zM22 35h1v1H22zM25 35h2v1H25zM28 35h2v1H28zM31 35h6v1H31zM41 35h2v1H41zM44 35h1v1H44zM47 35h1v1H47zM50 35h4v1H50zM4 36h4v1H4zM10 36h1v1H10zM12 36h1v1H12zM14 36h1v1H14zM17 36h1v1H17zM20 36h3v1H20zM26 36h2v1H26zM29 36h2v1H29zM32 36h1v1H32zM35 36h2v1H35zM38 36h4v1H38zM43 36h1v1H43zM49 36h1v1H49zM51 36h1v1H51zM53 36h3v1H53zM4 37h6v1H4zM11 37h6v1H11zM21 37h2v1H21zM24 37h1v1H24zM26 37h1v1H26zM30 37h3v1H30zM36 37h1v1H36zM40 37h2v1H40zM43 37h1v1H43zM46 37h1v1H46zM48 37h1v1H48zM52 37h2v1H52zM55,37 h2v1H55zM8 38h1v1H8zM10 38h3v1H10zM16 38h4v1H16zM22 38h3v1H22zM27 38h1v1H27zM29 38h3v1H29zM34 38h5v1H34zM40 38h1v1H40zM42 38h1v1H42zM47 38h1v1H47zM49 38h1v1H49zM51 38h1v1H51zM53 38h1v1H53zM4 39h1v1H4zM6 39h1v1H6zM9 39h1v1H9zM13 39h2v1H13zM16 39h4v1H16zM25 39h1v1H25zM27 39h2v1H27zM30 39h2v1H30zM34 39h3v1H34zM44 39h8v1H44zM6 40h1v1H6zM10 40h1v1H10zM13 40h1v1H13zM15 40h2v1H15zM19 40h4v1H19zM24 40h1v1H24zM29 40h3v1H29zM33 40h5v1H33zM39 40h2v1H39zM42 40h2v1H42zM45 40h2v1H45zM49 40h1v1H49zM51 40h1v1H51zM54 40h2v1H54zM7 41h3v1H7zM15 41h3v1H15zM19 41h1v1H19zM21 41h1v1H21zM26 41h1v1H26zM30 41h1v1H30zM33 41h7v1H33zM41 41h1v1H41zM46 41h1v1H46zM48 41h1v1H48zM51 41h3v1H51zM55,41 h2v1H55zM4 42h1v1H4zM7 42h1v1H7zM9 42h2v1H9zM14 42h1v1H14zM16 42h8v1H16zM25 42h1v1H25zM27 42h5v1H27zM35 42h6v1H35zM42 42h1v1H42zM45 42h1v1H45zM48 42h1v1H48zM52 42h1v1H52zM54 42h1v1H54zM5 43h1v1H5zM8 43h1v1H8zM11 43h1v1H11zM14 43h4v1H14zM20 43h1v1H20zM22 43h1v1H22zM24 43h1v1H24zM26 43h1v1H26zM30 43h1v1H30zM32 43h1v1H32zM35 43h2v1H35zM38 43h2v1H38zM43 43h2v1H43zM47 43h1v1H47zM50 43h3v1H50zM55,43 h2v1H55zM10 44h2v1H10zM13 44h2v1H13zM19 44h2v1H19zM22 44h1v1H22zM26 44h1v1H26zM30 44h3v1H30zM34 44h3v1H34zM39 44h2v1H39zM42 44h2v1H42zM46 44h1v1H46zM49 44h1v1H49zM51 44h1v1H51zM53 44h3v1H53zM5 45h1v1H5zM7 45h3v1H7zM12 45h5v1H12zM19 45h2v1H19zM22 45h2v1H22zM25 45h2v1H25zM30 45h1v1H30zM35 45h1v1H35zM38 45h3v1H38zM44 45h3v1H44zM51 45h2v1H51zM56,45 h1v1H56zM4 46h2v1H4zM7 46h6v1H7zM14 46h1v1H14zM18 46h1v1H18zM20 46h5v1H20zM28 46h3v1H28zM32 46h4v1H32zM39 46h4v1H39zM44 46h2v1H44zM48 46h1v1H48zM51 46h1v1H51zM53 46h1v1H53zM55 46h1v1H55zM5 47h2v1H5zM11 47h1v1H11zM14 47h7v1H14zM22 47h4v1H22zM27 47h1v1H27zM30 47h1v1H30zM32 47h2v1H32zM36 47h2v1H36zM39 47h1v1H39zM44 47h1v1H44zM46 47h5v1H46zM52 47h2v1H52zM55 47h1v1H55zM7 48h1v1H7zM10 48h1v1H10zM16 48h1v1H16zM18 48h2v1H18zM23 48h2v1H23zM26 48h1v1H26zM28 48h6v1H28zM35 48h1v1H35zM37 48h1v1H37zM40 48h1v1H40zM48 48h5v1H48zM54 48h1v1H54zM12 49h1v1H12zM14 49h3v1H14zM18 49h1v1H18zM20 49h1v1H20zM22 49h2v1H22zM26 49h3v1H26zM32 49h1v1H32zM34 49h1v1H34zM38 49h2v1H38zM41 49h1v1H41zM43 49h2v1H43zM46 49h1v1H46zM48 49h1v1H48zM52 49h1v1H52zM54,49 h3v1H54zM4 50h7v1H4zM16 50h1v1H16zM18 50h1v1H18zM23 50h1v1H23zM27 50h2v1H27zM30 50h1v1H30zM32 50h1v1H32zM34 50h2v1H34zM38 50h1v1H38zM40 50h1v1H40zM42 50h2v1H42zM45 50h1v1H45zM48 50h1v1H48zM50 50h1v1H50zM52 50h2v1H52zM4 51h1v1H4zM10 51h1v1H10zM15 51h1v1H15zM17 51h1v1H17zM19 51h1v1H19zM25 51h1v1H25zM28 51h1v1H28zM32 51h3v1H32zM36 51h1v1H36zM42 51h4v1H42zM48 51h1v1H48zM52 51h2v1H52zM55,51 h2v1H55zM4 52h1v1H4zM6 52h3v1H6zM10 52h1v1H10zM12 52h2v1H12zM16 52h1v1H16zM19 52h1v1H19zM25 52h9v1H25zM35 52h1v1H35zM37 52h2v1H37zM40 52h3v1H40zM45 52h1v1H45zM48 52h7v1H48zM56,52 h1v1H56zM4 53h1v1H4zM6 53h3v1H6zM10 53h1v1H10zM12 53h2v1H12zM15 53h3v1H15zM23 53h2v1H23zM27 53h1v1H27zM31 53h1v1H31zM35 53h1v1H35zM37 53h1v1H37zM39 53h2v1H39zM43 53h1v1H43zM45 53h5v1H45zM54,53 h3v1H54zM4 54h1v1H4zM6 54h3v1H6zM10 54h1v1H10zM12 54h1v1H12zM14 54h1v1H14zM17 54h1v1H17zM21 54h1v1H21zM24 54h3v1H24zM28 54h1v1H28zM32 54h3v1H32zM36 54h1v1H36zM38 54h1v1H38zM40 54h1v1H40zM42 54h1v1H42zM44 54h1v1H44zM47 54h1v1H47zM49 54h2v1H49zM52 54h3v1H52zM4 55h1v1H4zM10 55h1v1H10zM13 55h1v1H13zM16 55h1v1H16zM20 55h1v1H20zM26 55h2v1H26zM31 55h2v1H31zM34 55h2v1H34zM37 55h2v1H37zM40 55h5v1H40zM46 55h2v1H46zM49 55h1v1H49zM51 55h5v1H51zM4 56h7v1H4zM13 56h4v1H13zM20 56h1v1H20zM22 56h2v1H22zM25 56h1v1H25zM27 56h1v1H27zM30 56h1v1H30zM34 56h5v1H34zM40 56h1v1H40zM42 56h2v1H42zM45 56h2v1H45zM48 56h1v1H48zM50 56h1v1H50z" shape-rendering="crispEdges"/></svg>